<!-- Generator: Adobe Illustrator 17.1.0, SVG Export Plug-In  -->
<svg version="1.1"
	 xmlns="http://www.w3.org/2000/svg" xmlns:xlink="http://www.w3.org/1999/xlink" xmlns:a="http://ns.adobe.com/AdobeSVGViewerExtensions/3.0/"
	 x="0px" y="0px" width="862.215px" height="154.405px" viewBox="0 0 862.215 154.405" enable-background="new 0 0 862.215 154.405"
	 xml:space="preserve">
<defs>
</defs>
<g>
	<g>
		<path fill="#231F20" stroke="#231F20" stroke-width="2" stroke-miterlimit="10" d="M184.927,56.441
			c0-0.574,0.408-1.064,0.901-1.064h0.163h0.083h30.396c0.572,0,0.983,0.49,0.983,1.064c0,0.573-0.411,0.984-0.983,0.984h-29.578
			v25.56h26.055c0.573,0,0.984,0.491,0.984,0.984c0,0.654-0.411,1.063-0.984,1.063h-26.055v26.63c0,0.572-0.41,1.063-1.064,1.063
			c-0.493,0-0.901-0.491-0.901-1.063V56.441z"/>
		<path fill="#231F20" stroke="#231F20" stroke-width="2" stroke-miterlimit="10" d="M234.572,56.441
			c0-0.574,0.409-1.064,1.066-1.064c0.572,0,0.982,0.49,0.982,1.064v33.264c0,11.635,9.34,20.811,20.892,20.974
			c11.471-0.163,20.812-9.339,20.894-20.974V56.441c0-0.574,0.492-1.064,1.065-1.064c0.491,0,1.065,0.49,1.065,1.064v33.264
			c0,12.781-10.404,23.022-23.023,23.022c-12.698,0-22.94-10.241-22.94-23.022V56.441z"/>
		<path fill="#231F20" stroke="#231F20" stroke-width="2" stroke-miterlimit="10" d="M301.996,59.638v52.026
			c0,0.572-0.409,1.063-0.983,1.063c-0.491,0-1.063-0.491-1.063-1.063V56.852v-0.246c0-0.328,0.162-0.654,0.409-0.9
			c0.574-0.328,1.148-0.247,1.475,0.162l37.852,52.6V56.852c0-0.574,0.573-1.066,1.065-1.066c0.574,0,0.983,0.492,0.983,1.066
			v54.812c0,0.572-0.409,1.063-0.983,1.063c-0.41,0-0.819-0.245-0.984-0.654c-0.08,0-0.08,0-0.08-0.083L301.996,59.638z"/>
		<path fill="#231F20" stroke="#231F20" stroke-width="2" stroke-miterlimit="10" d="M389.903,86.92
			c-1.147,0-2.048-0.82-2.048-1.967s0.9-2.05,2.048-2.05h17.698h0.245c0.983,0.083,1.804,0.984,1.804,2.05v19.665v0.327
			c-0.083,0.574-0.329,1.146-0.74,1.475c-5.077,4.015-11.468,6.308-18.516,6.308c-16.467-0.082-29.822-12.944-29.822-29.167
			c0-15.977,13.355-29.003,29.822-29.003c7.128,0,13.439,2.457,18.599,6.471c0.737,0.574,0.984,1.968,0.246,2.788
			c-0.655,0.817-1.884,0.98-2.868,0.328c-4.178-3.442-9.83-5.572-15.977-5.572c-14.336,0-25.808,11.224-25.808,24.988
			c0,13.927,11.472,25.153,25.808,25.153c5.572,0,10.896-1.804,15.158-4.917V86.92H389.903z"/>
		<path fill="#231F20" stroke="#231F20" stroke-width="2" stroke-miterlimit="10" d="M454.952,54.558
			c15.32,0,27.365,13.026,27.445,29.086c-0.08,16.058-12.125,29.084-27.445,29.084c-15.484,0-27.611-13.026-27.693-29.084
			C427.341,67.584,439.468,54.558,454.952,54.558z M454.952,108.714c12.615,0,23.269-11.062,23.351-25.07
			c-0.082-14.176-10.735-24.991-23.351-24.991c-13.029,0-23.68,10.815-23.68,24.991C431.272,97.652,441.923,108.714,454.952,108.714
			z"/>
		<path fill="#231F20" stroke="#231F20" stroke-width="2" stroke-miterlimit="10" d="M497.631,98.475
			c1.476-1.805,4.178-2.053,5.981-0.574c3.605,2.948,9.831,6.389,15.649,6.308c4.096,0,7.782-1.23,10.242-3.032
			c2.457-1.801,3.521-3.85,3.521-5.899c0-1.065-0.245-1.803-0.737-2.62c-0.493-0.82-1.23-1.641-2.457-2.46
			c-2.376-1.557-6.393-2.95-11.226-3.851h-0.163c-3.85-0.737-7.456-1.721-10.568-3.194c-3.113-1.475-5.818-3.524-7.619-6.392
			c-1.23-1.965-1.886-4.261-1.886-6.719c0-4.916,2.786-9.176,6.555-11.961c3.851-2.785,8.85-4.344,14.175-4.344
			c7.864,0,13.682,3.852,17.861,6.555c1.883,1.312,2.457,3.934,1.146,5.817c-1.23,1.968-3.851,2.539-5.817,1.23
			c-4.177-2.787-8.19-5.244-13.189-5.244c-3.688,0-6.964,1.148-9.179,2.787c-2.209,1.638-3.113,3.439-3.113,5.159
			c0,0.984,0.166,1.641,0.574,2.295c0.411,0.654,1.148,1.395,2.213,2.129c2.131,1.477,5.817,2.787,10.242,3.606h0.163
			c4.177,0.818,8.027,1.884,11.307,3.442c3.357,1.638,6.308,3.769,8.193,6.8c1.229,1.965,1.968,4.423,1.968,6.963
			c0,5.244-2.953,9.75-7.048,12.698c-4.014,2.951-9.342,4.671-15.157,4.671c-8.85-0.081-16.306-4.506-20.975-8.193
			C496.485,102.978,496.238,100.275,497.631,98.475z"/>
		<path fill="#231F20" stroke="#231F20" stroke-width="2" stroke-miterlimit="10" d="M587.913,64.471h-13.025v43.751
			c0,2.541-1.968,4.506-4.507,4.506c-2.457,0-4.506-1.965-4.506-4.506V64.471h-12.944c-2.539,0-4.507-2.131-4.507-4.59
			c0-2.538,1.968-4.504,4.507-4.504h34.982c2.46,0,4.507,1.966,4.507,4.504C592.42,62.34,590.373,64.471,587.913,64.471z"/>
		<path fill="#231F20" stroke="#231F20" stroke-width="2" stroke-miterlimit="10" d="M629.697,112.728
			c-13.192,0-23.68-10.65-23.68-23.677v-29.17c0-2.538,1.967-4.504,4.506-4.504c2.457,0,4.588,1.966,4.588,4.504v29.17
			c0,8.028,6.556,14.583,14.586,14.583c8.111,0,14.582-6.555,14.582-14.583v-29.17c0-2.538,2.049-4.504,4.588-4.504
			c2.539,0,4.506,1.966,4.506,4.504v29.17C653.373,102.077,642.805,112.728,629.697,112.728z"/>
		<path fill="#231F20" stroke="#231F20" stroke-width="2" stroke-miterlimit="10" d="M670.163,108.222V59.881
			c0-2.538,1.967-4.504,4.506-4.504h9.671c15.81,0,28.594,12.862,28.594,28.594c0,15.893-12.783,28.757-28.594,28.757h-9.671
			C672.13,112.728,670.163,110.679,670.163,108.222z M679.26,103.634h5.08c10.815-0.082,19.497-8.768,19.497-19.663
			c0-10.734-8.683-19.5-19.497-19.5h-5.08V103.634z"/>
		<path fill="#231F20" stroke="#231F20" stroke-width="2" stroke-miterlimit="10" d="M725.546,59.881
			c0-2.538,1.965-4.504,4.507-4.504c2.46,0,4.588,1.966,4.588,4.504v48.341c0,2.541-2.128,4.506-4.588,4.506
			c-2.542,0-4.507-1.965-4.507-4.506V59.881z"/>
		<path fill="#231F20" stroke="#231F20" stroke-width="2" stroke-miterlimit="10" d="M795.186,62.503
			c5.08,5.41,8.274,12.618,8.274,20.729s-3.194,15.402-8.274,20.729c-4.833,5.327-12.044,8.767-19.582,8.767
			c-7.867,0-15.075-3.439-20.074-8.767c-5.077-5.326-8.111-12.617-8.111-20.729s3.034-15.319,8.111-20.729
			c4.999-5.407,12.207-8.767,20.074-8.767C783.142,53.736,790.353,57.096,795.186,62.503z M794.119,83.232
			c0-5.572-2.212-10.733-5.57-14.337c-3.44-3.688-8.03-5.818-12.944-5.818c-5.243,0-9.831,2.131-13.273,5.818
			c-3.439,3.604-5.57,8.765-5.57,14.337c0,5.57,2.131,10.732,5.57,14.255c3.442,3.688,8.03,5.901,13.273,5.901
			c4.914,0,9.505-2.213,12.944-5.901C791.907,93.965,794.119,88.803,794.119,83.232z"/>
		<path fill="#231F20" stroke="#231F20" stroke-width="2" stroke-miterlimit="10" d="M817.382,98.475
			c1.476-1.805,4.181-2.053,5.984-0.574c3.603,2.948,9.829,6.389,15.646,6.308c4.099,0,7.782-1.23,10.242-3.032
			c2.458-1.801,3.522-3.85,3.522-5.899c0-1.065-0.245-1.803-0.737-2.62c-0.49-0.82-1.228-1.641-2.454-2.46
			c-2.379-1.557-6.393-2.95-11.228-3.851h-0.164c-3.85-0.737-7.456-1.721-10.568-3.194c-3.113-1.475-5.818-3.524-7.619-6.392
			c-1.231-1.965-1.883-4.261-1.883-6.719c0-4.916,2.783-9.176,6.552-11.961c3.85-2.785,8.85-4.344,14.175-4.344
			c7.867,0,13.682,3.852,17.858,6.555c1.886,1.312,2.46,3.934,1.148,5.817c-1.227,1.968-3.85,2.539-5.817,1.23
			c-4.177-2.787-8.193-5.244-13.189-5.244c-3.688,0-6.964,1.148-9.176,2.787c-2.212,1.638-3.116,3.439-3.116,5.159
			c0,0.984,0.164,1.641,0.574,2.295c0.411,0.654,1.148,1.395,2.213,2.129c2.131,1.477,5.817,2.787,10.242,3.606h0.163
			c4.18,0.818,8.03,1.884,11.307,3.442c3.36,1.638,6.31,3.769,8.193,6.8c1.227,1.965,1.965,4.423,1.965,6.963
			c0,5.244-2.947,9.75-7.045,12.698c-4.014,2.951-9.339,4.671-15.157,4.671c-8.849-0.081-16.305-4.506-20.975-8.193
			C816.234,102.978,815.992,100.275,817.382,98.475z"/>
	</g>
	<g>
		<path fill-rule="evenodd" clip-rule="evenodd" fill="#A5A7AA" d="M76.68,148.075c0.375,0.361,0.574,0.738,0.574,1.125
			c0,2.874-10.927,5.205-24.401,5.205c-13.473,0-24.401-2.331-24.401-5.205c0-2.775,10.182-5.043,23.006-5.199
			c-0.065-0.124-0.099-0.251-0.099-0.379c0-2.465,12.117-4.462,27.057-4.462c14.939,0,27.057,1.997,27.057,4.462
			c0,2.464-12.117,4.462-27.057,4.462C77.832,148.084,77.256,148.081,76.68,148.075z"/>
		<path fill-rule="evenodd" clip-rule="evenodd" fill="#353535" d="M91.657,124.817c0.224,4.453,0.798,12.208-1.946,16.999
			c-2.084,3.64-5.342,4.247-8.924,4.13c-2.893-0.093-6.764-1.457-9.562-2.223c-1.926,5.214-3.509,6.274-8.126,6.39
			c-4.084,0.104-10.603-0.545-14.464-1.938c-2.637-0.953-3.864-2.049-4.785-5.125c-1.28-4.278-0.876-8.75,0.274-13.023
			c-4.524-1.498-11.004-6.132-9.762-12.484c2.933-12.443,10.168-21.422,20.598-26.756l0.267-0.068
			c8.097-0.176,16.187,0.44,24.283,0.265l0.352,0.103c6.172,4.015,15.728,15.731,15.994,24.603
			C95.703,118.718,93.935,122.98,91.657,124.817L91.657,124.817z"/>
		<path fill-rule="evenodd" clip-rule="evenodd" fill="#BB342F" d="M71.168,141.667c2.352,0.621,4.961,1.13,7.744,1.218
			c4.311,0.138,6.732,0.02,8.309-2.681c2.488-4.268,2.109-10.24,2.045-15.126l0,0c-0.047-5.154-2.697-14.042-6.125-17.54
			c5.433,3.203,6.77,13.642,6.924,16.44c1.067-1.133,2.156-3.276,2.71-7.428c-0.159-5.195-5.621-16.996-14.052-22.38
			c-7.721,0.163-15.222-0.41-22.942-0.246c-10.177,5.11-15.657,13.662-18.223,24.348c-0.892,5.609,3.893,9.523,8.259,10.804
			c2.292,0.566,6.684,0.359,6.812-2.888c0.239-6.047,0.258-11.971,3.308-18.174c-1.149,3.25-1.612,7.407-1.793,9.276
			c-0.309,3.183-0.235,6.354-0.356,9.42c-0.147,3.708-5.066,3.757-7.878,3.127c-1.06,3.837-1.006,7.672,0.164,11.509
			c0.78,2.559,1.584,3.126,3.956,3.967c4.917,1.743,13.206,2.316,16.666,1.207c1.905-0.611,2.847-2.875,3.528-4.842
			c1.33-3.895,2.105-8.08,2.613-12.201C73.142,132.776,71.777,139.612,71.168,141.667z"/>
		<path fill-rule="evenodd" clip-rule="evenodd" fill="#CFD1D2" d="M71.168,141.666c0.479,0.126,0.967,0.248,1.465,0.363l0,0
			c0.229,0.052,0.461,0.104,0.695,0.153l0,0l0.117,0.024l0,0l0.117,0.024l0,0l0.237,0.047l0,0l0.118,0.023l0,0l0.119,0.023l0,0
			l0.119,0.022l0,0l0.119,0.021v0.001l0.12,0.021l0,0l0.12,0.021l0,0l0.121,0.021l0,0l0.121,0.021v0.001l0.121,0.02l0,0l0.121,0.02
			l0,0l0.121,0.02l0,0l0.123,0.019l0,0l0.121,0.02l0.123,0.018l0,0l0.123,0.018l0,0l0.124,0.018l0,0l0.124,0.018l0.123,0.016v0.001
			l0.125,0.016l0.124,0.016h0.001l0.123,0.016h0.002l0.125,0.015l0.125,0.015l0,0l0.125,0.014l0.127,0.014l0.125,0.013l0.127,0.013
			l0,0l0.127,0.011l0.127,0.012l0.128,0.011l0.128,0.011l0.127,0.009l0,0c0.171,0.013,0.343,0.023,0.515,0.033l0,0l0.13,0.007l0,0
			l0.129,0.007l0.13,0.005l0.13,0.005l0.131,0.005c4.311,0.138,6.732,0.02,8.309-2.681c0.079-0.136,0.154-0.274,0.229-0.414
			l0.031-0.058c0.025-0.05,0.051-0.1,0.076-0.149l0.041-0.082l0.062-0.131l0.041-0.088c0.02-0.041,0.039-0.082,0.059-0.123
			l0.047-0.105l0.049-0.111l0.046-0.109l0.044-0.106l0.053-0.129l0.034-0.086l0.044-0.117l0.045-0.118l0.033-0.092l0.045-0.127
			l0.043-0.12l0.033-0.099l0.041-0.127l0.033-0.107l0.039-0.121l0.031-0.107l0.033-0.113l0.037-0.126l0.028-0.105l0.034-0.129
			l0.025-0.1l0.034-0.131l0.028-0.115l0.031-0.126l0.021-0.098l0.033-0.148l0.022-0.095l0.029-0.139l0.02-0.1l0.03-0.149
			l0.018-0.092l0.027-0.148l0.017-0.095l0.025-0.146l0.018-0.103l0.022-0.136l0.018-0.112l0.022-0.15l0.012-0.08l0.026-0.188
			l0.008-0.055l0.024-0.194l0.008-0.056l0.021-0.178l0.008-0.078l0.022-0.19l0.006-0.051l0.02-0.198l0.006-0.058l0.021-0.227
			l0.001-0.015l0.019-0.218l0.004-0.041l0.014-0.184l0.005-0.064l0.002-0.023l0.016-0.232c0.017-0.253,0.03-0.507,0.042-0.762
			v-0.005l0.01-0.243v-0.012l0.01-0.256l0.007-0.23l0.001-0.025c0.011-0.422,0.018-0.845,0.02-1.266v-0.044
			c0.002-0.498-0.002-0.994-0.008-1.485l-0.002-0.143l-0.002-0.108l-0.002-0.135l-0.001-0.114c-0.007-0.446-0.017-0.888-0.024-1.323
			l-0.003-0.151l-0.001-0.084l-0.004-0.157l0.001,0.012c-0.026,3.503-0.521,6.728-1.485,9.257c-2.316,6.068-12.541,6.865-15.37,0.42
			c-0.062,0.399-0.125,0.798-0.19,1.188l-0.021,0.117c-0.146,0.856-0.305,1.676-0.459,2.407l-0.022,0.099
			c-0.056,0.263-0.111,0.514-0.164,0.75l-0.021,0.088l-0.02,0.086l-0.02,0.085l-0.02,0.084l-0.02,0.082l-0.004,0.015l-0.016,0.066
			c-0.045,0.187-0.088,0.36-0.13,0.52l-0.018,0.067l-0.009,0.035l-0.009,0.03l-0.017,0.064l-0.018,0.062l-0.016,0.061l-0.005,0.015
			l-0.012,0.043l-0.017,0.057l-0.002,0.008l-0.014,0.047L71.168,141.666L71.168,141.666z M89.277,125.772
			c-0.004-0.233-0.008-0.465-0.012-0.694C89.269,125.308,89.273,125.539,89.277,125.772L89.277,125.772z M90.064,123.979
			l0.051-0.054l0.001-0.001l0.032-0.036l0.018-0.018l0.023-0.027l0.01-0.012l0.037-0.044l0.025-0.027l0.004-0.005l0.05-0.061l0,0
			l0.06-0.073l0.016-0.02l0.037-0.046l0.023-0.032l0.049-0.064l0.004-0.007l0.06-0.082l0.002-0.001l0.057-0.08l0.016-0.024
			l0.04-0.058l0.024-0.036l0.027-0.041l0.029-0.047l0.003-0.004l0.05-0.076L90.814,123l0.046-0.076l0.005-0.007l0.025-0.043
			l0.035-0.059l0.021-0.035l0.027-0.047l0.031-0.057l0,0l0.049-0.087l0.003-0.005l0.045-0.083l0.003-0.008l0.035-0.063l0.018-0.034
			l0.033-0.063l0.034-0.07l0.011-0.021l0.008-0.016l0.048-0.097l0.005-0.008l0.014-0.033l0.038-0.078l0.015-0.032l0.037-0.082
			l0.021-0.048l0.033-0.075l0.015-0.033l0.007-0.016l0.045-0.107l0.006-0.011l0.006-0.017l0.043-0.104l0.021-0.055l0.025-0.063
			l0.024-0.062l0.036-0.094l0.011-0.029l0.005-0.015l0.045-0.117l0.004-0.016l0.039-0.104l0.006-0.018l0.024-0.068l0.027-0.08
			l0.02-0.057l0.046-0.139l0.005-0.014l0.041-0.129v-0.004l0.023-0.073l0.023-0.076l0.023-0.075l0.023-0.082l0.021-0.071
			l0.035-0.124l0.006-0.024l0.004-0.012l0.039-0.142l0,0l0.025-0.098l0.02-0.073l0.018-0.068l0.029-0.115l0.016-0.062l0.006-0.022
			l0.033-0.143l0.003-0.01l0.04-0.174l0.012-0.047l0.028-0.131l0.015-0.063l0.027-0.131l0.012-0.058l0.035-0.173l0.004-0.015
			l0.001-0.007l0.032-0.168l0.002-0.003l0.021-0.122l0.014-0.07l0.02-0.107l0.02-0.111l0.016-0.083l0.004-0.022l0.029-0.175v-0.004
			l0.033-0.208l0.011-0.069l0.021-0.137l0.014-0.09l0.02-0.133l0.012-0.078l0.03-0.222c-0.159-5.195-5.621-16.996-14.052-22.38
			l-0.254,0.005l-0.107,0.002h-0.035l-0.301,0.005L78,94.185h-0.037l-0.254,0.004l-0.07,0.001l-0.183,0.002l-0.179,0.002
			l-0.359,0.003l-0.221,0.001l-0.141,0.001l-0.111,0.001h-0.248h-0.005L75.94,94.2h-0.104h-0.148h-0.211h-0.041l-0.253-0.001h-0.066
			l-0.185-0.001l-0.173-0.001l-0.079-0.001l-0.251-0.001L74.4,94.194l-0.223-0.001l-0.137-0.002l-0.115-0.001l-0.242-0.003h-0.01
			l-0.25-0.003l-0.1-0.002l-0.152-0.002l-0.205-0.003h-0.045l-0.252-0.004l-0.061-0.001L72.42,94.17l-0.169-0.003l-0.083-0.002
			l-0.25-0.005h-0.025l-0.226-0.004l-0.132-0.003l-0.357-0.008h-0.012l-0.251-0.006l-0.095-0.002l-0.156-0.003l-0.2-0.005
			l-0.05-0.001l-0.25-0.006l-0.058-0.002l-0.193-0.004l-0.163-0.004l-0.087-0.002l-0.251-0.007l-0.02-0.001l-0.23-0.006
			l-0.127-0.003l-0.123-0.003l-0.233-0.006l-0.017-0.001l-0.25-0.006l-0.09-0.003l-0.16-0.004l-0.197-0.005l-0.054-0.002
			l-0.249-0.007l-0.055-0.002l-0.197-0.005l-0.158-0.004l-0.092-0.003l-0.25-0.007h-0.016l-0.234-0.006l-0.122-0.004l-0.128-0.004
			l-0.229-0.006H66.16l-0.25-0.007l-0.086-0.003l-0.164-0.004L65.467,94l-0.057-0.001l-0.251-0.007l-0.05-0.001l-0.2-0.006
			l-0.155-0.003l-0.096-0.003l-0.25-0.006h-0.012l-0.238-0.006l-0.119-0.003l-0.131-0.003l-0.226-0.005h-0.025l-0.25-0.006
			l-0.082-0.001l-0.169-0.005l-0.188-0.004l-0.062-0.001l-0.25-0.005c5.517,0.58,9.804,2.337,16.068,2.204
			c8.431,2.431,12.941,14.314,13.1,19.509c-0.562,4.212-1.148,5.124-2.027,5.771C89.951,122.509,90.033,123.405,90.064,123.979
			L90.064,123.979z M58.296,93.896h-0.039h-0.039l-0.196,0.001h-0.039h-0.037h-0.002h-0.039l-0.04,0.001h-0.039h-0.079l-0.039,0.001
			H57.59h-0.004l-0.31,0.003l-0.039,0.001h-0.011l-0.303,0.003h-0.04l-0.018,0.001h-0.061l-0.039,0.001l-0.158,0.002l-0.039,0.002
			h-0.039h-0.026h-0.014l-0.275,0.005l-0.039,0.001l-0.033,0.001h-0.007l-0.039,0.001h-0.039l-0.04,0.001l-0.078,0.002h-0.04
			l-0.039,0.001l-0.039,0.001l-0.039,0.001c-10.177,5.11-15.657,13.662-18.223,24.348c-0.892,5.609,3.893,9.523,8.259,10.804
			c2.292,0.566,6.684,0.359,6.812-2.888l0.009-0.224l0.003-0.061l0.006-0.163l0.004-0.119l0.004-0.105l0.007-0.178l0.001-0.045
			l0.008-0.223l0.001-0.016l0.007-0.208l0.003-0.075l0.005-0.147l0.005-0.135l0.003-0.089l0.007-0.193l0.002-0.029l0.008-0.223
			l0.001-0.03l0.008-0.192l0.004-0.09l0.005-0.134l0.006-0.147l0.003-0.074l0.009-0.209l0.001-0.015l0.01-0.223l0.002-0.044
			l0.008-0.178l0.005-0.104l0.005-0.118l0.008-0.164l0.003-0.059l0.001-0.017l0.021-0.388l0.002-0.041l0.003-0.06l0.01-0.163v-0.006
			l0.012-0.208l0.002-0.026l0.013-0.204l0.014-0.223l0.001-0.015l0.014-0.207c0.01-0.146,0.02-0.292,0.031-0.438l0.002-0.026
			l0.016-0.203l0.019-0.223l0.014-0.167l0.007-0.084l0.017-0.188l0.001-0.01c0.033-0.363,0.07-0.728,0.111-1.091l0.005-0.045
			c0.041-0.36,0.086-0.72,0.137-1.08l0.003-0.023c0.03-0.214,0.062-0.428,0.096-0.641l0.002-0.015
			c0.07-0.442,0.149-0.884,0.236-1.326l0.005-0.026c0.132-0.664,0.287-1.329,0.466-1.996l0.004-0.016
			c0.1-0.373,0.209-0.746,0.327-1.12c-2.1,4.671-2.274,9.883-3.09,12.808c-1.368,4.9-5.565,0.539-7.602-1.516
			c-1.928-1.943-2.873-3.834-2.099-7.354C44.579,102.254,46.882,99.667,58.296,93.896L58.296,93.896L58.296,93.896z M45.908,129.838
			c-1.06,3.837-1.006,7.672,0.164,11.509c0.78,2.559,1.584,3.126,3.956,3.967c4.917,1.743,13.206,2.316,16.666,1.207
			c0.027-0.009,0.056-0.019,0.082-0.028l0.04-0.015l0.045-0.016l0.039-0.016l0.043-0.018l0.034-0.015l0.052-0.022l0.027-0.012
			l0.051-0.025l0.032-0.017l0.044-0.021l0.036-0.02l0.048-0.025l0.023-0.014l0.055-0.03l0.025-0.016l0.048-0.028l0.025-0.015
			l0.006-0.004l0.068-0.045l0.002-0.001l0.067-0.046l0.008-0.006l0.024-0.018l0.041-0.03l0.031-0.022l0.043-0.032l0.02-0.016
			l0.054-0.043l0.014-0.011l0.052-0.044l0.023-0.02l0.037-0.032l0.033-0.031l0.029-0.026l0.035-0.033l0.007-0.006l0.051-0.048
			l0.01-0.011l0.019-0.018l0.041-0.042l0.06-0.062l0.001-0.002l0.057-0.061l0.001-0.001l0.04-0.045l0.019-0.023l0.037-0.042
			l0.022-0.025l0.028-0.033l0.039-0.048l0.014-0.017l0.041-0.053l0.02-0.023l0.037-0.048l0.02-0.026l0.035-0.047L68.649,145
			l0.006-0.008l0.043-0.06l0.008-0.012l0.048-0.067l0.003-0.005l0.05-0.072l0.002-0.004l0.047-0.07l0.007-0.012l0.041-0.063
			l0.001-0.002l0.043-0.067l0.006-0.011l0.027-0.045l0.032-0.053l0.013-0.021l0.033-0.058l0.023-0.039l0.008-0.013l0.028-0.052
			l0.016-0.027l0.016-0.028l0.027-0.048l0.002-0.003l0.037-0.069l0.006-0.011l0.04-0.078L69.263,144l0.042-0.081l0.032-0.064
			l0.009-0.017l0.006-0.015l0.035-0.068l0.01-0.021l0.012-0.025l0.029-0.059l0.01-0.02l0.031-0.066l0.006-0.013l0.021-0.044
			l0.022-0.048l0.016-0.036l0.025-0.057l0.012-0.027l0.029-0.066l0.008-0.02l0.033-0.074l0.004-0.01l0.035-0.084l0.001-0.002
			l0.036-0.085l0.002-0.006l0.033-0.079l0.006-0.016l0.028-0.07l0.01-0.023l0.024-0.061l0.014-0.033l0.006-0.017l0.063-0.165
			l0.003-0.007l0.014-0.035l0.022-0.059l0.034-0.095l0.008-0.018l0.027-0.076l0.004-0.009c-8.695,8.223-26.243-3.17-18.807-12.433
			l-0.005,0.001c-0.048,0.015-0.097,0.029-0.146,0.044l-0.012,0.003c-0.049,0.014-0.099,0.028-0.149,0.04l-0.008,0.002
			c-0.079,0.02-0.16,0.04-0.242,0.058l-0.082,0.018l-0.081,0.017h-0.002l-0.083,0.017l-0.08,0.014l-0.012,0.002
			c-0.1,0.018-0.201,0.032-0.303,0.046l-0.047,0.006c-0.079,0.011-0.158,0.02-0.238,0.027l-0.086,0.009l-0.086,0.008h-0.001
			l-0.087,0.007l-0.086,0.006h0l-0.087,0.005l-0.086,0.005h-0.005c-0.104,0.005-0.21,0.009-0.315,0.011l-0.058,0.001H48.77
			l-0.087,0.001h-0.01h-0.074h-0.003l-0.087-0.001h-0.002l-0.081-0.002h-0.004l-0.087-0.002l-0.074-0.002h-0.013l-0.086-0.004
			l-0.057-0.002l-0.03-0.002l-0.086-0.004l-0.004-0.001l-0.082-0.004l-0.077-0.005l-0.008-0.001l-0.086-0.006l-0.015-0.002
			l-0.096-0.008l-0.088-0.007l-0.023-0.002l-0.033-0.004l-0.084-0.008l-0.038-0.004l-0.018-0.002l-0.11-0.013l-0.026-0.003
			l-0.021-0.002l-0.117-0.015l-0.014-0.001l-0.067-0.009l-0.081-0.012h-0.001l-0.079-0.012l-0.07-0.01l-0.01-0.002l-0.079-0.013
			l-0.058-0.009l-0.021-0.004l-0.111-0.018l-0.012-0.002l-0.032-0.007l-0.076-0.014l-0.033-0.006l-0.043-0.008l-0.075-0.015
			l-0.022-0.004l-0.052-0.011l-0.073-0.015l-0.01-0.003l-0.062-0.014L45.908,129.838z"/>
		<path fill="#E5E6E7" d="M109.865,93.636c0,0,2.782,0.907-15.998,7.097c-18.789,6.188-52.184,5.478-52.184,5.478l1.028-6.547
			c0,0,7.854,2.756,29.069,1.549C92.068,100.056,109.865,93.636,109.865,93.636z"/>
		<path fill="none" d="M71.505,18.817c1.708,6.777,7.825,11.802,15.134,11.802c2.9,0,5.602-0.804,7.928-2.179
			c-2.194,1.056-4.641,1.664-7.234,1.664C80.008,30.104,73.783,25.375,71.505,18.817z"/>
		<path fill="#353535" d="M71.857,18.865c-0.598-1.72-0.809-3.558-0.809-5.479c0-1.711,0.265-3.361,0.745-4.917h-2.381l0.656,10.348
			L71.857,18.865z"/>
		<path fill="#353535" d="M100.963,22.781c-1.608,1.924-3.615,3.506-5.906,4.603c-2.44,1.436-5.276,2.274-8.318,2.274
			c-7.67,0-14.092-5.245-15.883-12.32c-0.627-1.795-0.983-3.713-0.983-5.719c0-1.786,1.29-2.5,1.796-4.125
			c-2.439-0.454-4.861-0.711-7.238-0.711c-28.323,0-63.93,32.482-63.93,70.59c0,10.434,11.11,16.686,20.607,20.122
			c23.964,7.013,58.511,7.298,83.34,0.858l1.646-0.568c9.35-3.408,20.229-9.982,20.229-20.412
			C126.322,56.039,115.477,36.156,100.963,22.781z"/>
		<path fill="#353535" d="M64.333,103.479C64.332,103.479,64.333,103.479,64.333,103.479c-15.839,0-31.24-1.955-43.367-5.504
			C11.386,94.509,0,88.131,0,77.373c0-38.285,35.427-71.09,64.43-71.09c2.302,0,4.769,0.242,7.33,0.72l0.553,0.102l-0.167,0.537
			c-0.229,0.734-0.604,1.301-0.934,1.802c-0.451,0.682-0.84,1.271-0.84,2.175c0,1.87,0.321,3.738,0.955,5.555
			c1.793,7.073,8.125,11.984,15.411,11.984c2.824,0,5.613-0.763,8.064-2.205c2.22-1.065,4.204-2.611,5.776-4.493l0.337-0.402
			l0.386,0.355c15.98,14.726,25.521,35.271,25.521,54.96c0,11.648-12.88,18.083-20.558,20.882l-1.654,0.571
			C92.868,101.873,78.952,103.479,64.333,103.479z M64.43,7.283c-13.832,0-29.618,7.795-42.226,20.853
			C8.729,42.09,1,60.035,1,77.373c0,10.178,11.027,16.305,20.277,19.652c12.008,3.513,27.309,5.453,43.055,5.453
			c14.536,0,28.364-1.594,39.989-4.609l1.609-0.557c7.424-2.706,19.892-8.899,19.892-19.939c0-19.258-9.27-39.359-24.819-53.873
			c-1.605,1.81-3.576,3.303-5.731,4.335c-2.567,1.513-5.532,2.323-8.534,2.323c-7.744,0-14.475-5.221-16.367-12.697
			c-0.659-1.879-0.999-3.859-0.999-5.842c0-1.205,0.511-1.978,1.005-2.727c0.221-0.332,0.433-0.653,0.603-1.014
			C68.693,7.484,66.492,7.283,64.43,7.283z"/>
		<path fill="#BB342F" d="M100.195,24.031c-1.533,1.843-3.445,3.358-5.629,4.409c-2.326,1.375-5.027,2.179-7.928,2.179
			c-7.309,0-13.534-4.984-15.242-11.762c-0.598-1.72-0.829-3.598-0.829-5.519c0-1.711,0.265-3.361,0.745-4.917
			C68.988,7.986,66.68,7.74,64.416,7.74c-26.99,0-59.954,32.083-59.954,68.586c0,9.995,10.587,15.984,19.637,19.276
			c22.835,6.717,55.756,6.991,79.416,0.821l1.568-0.544c8.909-3.265,19.275-9.562,19.275-19.554
			C124.359,55.89,114.025,36.843,100.195,24.031z"/>
		<path fill="#CFD1D2" d="M100.195,24.031c-1.533,1.843-3.445,3.358-5.629,4.409c-2.326,1.375-5.027,2.179-7.928,2.179
			c-7.309,0-13.534-4.984-15.242-11.762c-0.598-1.72-0.829-3.598-0.829-5.519c0-1.711,0.265-3.361,0.745-4.917
			C68.988,7.986,66.68,7.74,64.416,7.74c-26.99,0-59.954,32.083-59.954,68.586c0,9.995,10.587,15.984,19.637,19.276
			c22.835,6.717,55.756,6.991,79.416,0.821l1.568-0.544c8.909-3.265,19.275-9.562,19.275-19.554
			C124.359,55.89,114.025,36.843,100.195,24.031z M104.924,92.394l-1.175,0.77c-21.232,5.534-50.772,4.228-71.262-1.802
			c-8.122-2.952-17.622-8.679-17.622-20.482c0-32.754,25.331-61.544,49.55-61.544c2.032,0,3.04,0.219,5.127,0.609
			c-0.432,1.397-0.669,2.878-0.669,4.413c0,1.724,0.305,3.372,0.842,4.916c1.531,6.082,5.631,13.462,17.828,12.715
			c2.597-0.16,5.027-0.722,7.113-1.955c1.959-0.943,3.676-2.304,5.053-3.957c12.41,11.497,22.744,28.588,22.744,46.927
			C122.453,81.969,112.92,89.464,104.924,92.394z"/>
		<circle fill="#353535" cx="87.33" cy="13.802" r="12.302"/>
		<path fill="#333333" d="M87.33,27.604c-7.611,0-13.803-6.192-13.803-13.804C73.527,6.19,79.719,0,87.33,0
			c7.609,0,13.801,6.19,13.801,13.8C101.131,21.411,94.939,27.604,87.33,27.604z M87.33,3c-5.957,0-10.803,4.845-10.803,10.8
			c0,5.957,4.846,10.804,10.803,10.804c5.956,0,10.801-4.847,10.801-10.804C98.131,7.845,93.286,3,87.33,3z"/>
		<circle fill="#BB342F" cx="88.094" cy="13.802" r="11.537"/>
		<path fill="#CFD0D0" d="M88.04,1.758c-6.511,0-11.792,5.278-11.792,11.791c0,6.512,5.281,11.79,11.792,11.79
			c6.511,0,11.792-5.278,11.792-11.79C99.832,7.036,94.551,1.758,88.04,1.758z M88.04,20.515c-5.708,0-10.337-4.126-10.337-9.217
			S82.332,2.08,88.04,2.08s10.336,4.127,10.336,9.218S93.748,20.515,88.04,20.515z"/>
		<path fill="#FFFFFF" d="M87.895,66.705c6.812-0.006,12.321-5.515,12.329-12.329c-0.008-6.81-5.518-12.317-12.329-12.329
			c-6.802,0.012-12.32,5.52-12.328,12.329C75.575,61.19,81.094,66.699,87.895,66.705z M98.303,56.686c0-0.037,0.083-0.037,0.083,0
			c-0.01,0.393-0.01,0.742-0.286,1.041c-0.012,0.013-0.031-0.007-0.022-0.02C98.336,57.406,98.315,57.06,98.303,56.686z
			 M94.728,62.578c0.451-0.443,0.872-0.957,1.274-1.441c0.401-0.49,0.741-1.059,1.19-1.488c0.139-0.135,0.33,0,0.299,0.176
			c-0.113,0.645-0.657,1.233-1.121,1.672c-0.491,0.463-0.985,0.834-1.601,1.132C94.728,62.647,94.688,62.6,94.728,62.578z
			 M93.689,63.255c0.122-0.019,0.197,0.101,0.113,0.191c-1.892,2.312-5.566,2.254-8.055,1.247c-0.06-0.021-0.04-0.105,0.022-0.082
			c1.387,0.34,3.104,0.34,4.469-0.091C91.4,64.138,92.478,63.461,93.689,63.255z M86.272,51.295c1.841,0,3.338,1.901,3.338,4.232
			c0,2.344-1.497,4.244-3.338,4.244c-1.839,0-3.338-1.9-3.338-4.244C82.934,53.196,84.433,51.295,86.272,51.295z"/>
		<path fill="#353535" d="M87.895,42.047c6.812,0.012,12.321,5.52,12.329,12.329c-0.008,6.814-5.518,12.323-12.329,12.329
			c-6.802-0.006-12.32-5.515-12.328-12.329C75.575,47.566,81.094,42.059,87.895,42.047 M87.899,39.915h-0.004h-0.004
			c-7.962,0.015-14.446,6.501-14.456,14.458c0.01,7.971,6.495,14.456,14.457,14.464c7.968-0.008,14.454-6.493,14.464-14.458
			C102.347,46.416,95.861,39.93,87.899,39.915L87.899,39.915z"/>
		<path fill="#353535" d="M98.1,57.727c0.276-0.299,0.276-0.648,0.286-1.041c0-0.037-0.083-0.037-0.083,0
			c0.013,0.374,0.033,0.721-0.226,1.021C98.068,57.72,98.088,57.739,98.1,57.727z"/>
		<path fill="#353535" d="M96.371,61.496c0.464-0.439,1.008-1.027,1.121-1.672c0.031-0.176-0.16-0.311-0.299-0.176
			c-0.449,0.43-0.789,0.998-1.19,1.488c-0.402,0.484-0.823,0.998-1.274,1.441c-0.04,0.022,0,0.069,0.042,0.05
			C95.386,62.33,95.88,61.959,96.371,61.496z"/>
		<path fill="#353535" d="M86.272,59.771c1.841,0,3.338-1.9,3.338-4.244c0-2.331-1.497-4.232-3.338-4.232
			c-1.839,0-3.338,1.901-3.338,4.232C82.934,57.871,84.433,59.771,86.272,59.771z"/>
		<path fill="#353535" d="M85.77,64.611c-0.062-0.023-0.082,0.061-0.022,0.082c2.488,1.007,6.163,1.065,8.055-1.247
			c0.084-0.09,0.009-0.21-0.113-0.191c-1.211,0.206-2.289,0.883-3.45,1.266C88.874,64.951,87.157,64.951,85.77,64.611z"/>
		<path fill="#FFFFFF" d="M55.842,74.063c9.738-0.008,17.608-8.046,17.619-17.979c-0.011-9.928-7.881-17.967-17.619-17.981
			c-9.736,0.015-17.618,8.054-17.627,17.981C38.224,66.018,46.105,74.056,55.842,74.063z M61.405,71.283
			c-1.048,0.473-2.365,0.275-3.48,0.229c-0.068-0.012-0.068-0.102,0-0.118c1.138-0.052,2.275-0.318,3.412-0.368
			C61.46,71.025,61.531,71.225,61.405,71.283z M59.199,52.897c2.125,0,3.845,1.946,3.845,4.346c0,2.403-1.72,4.351-3.845,4.351
			c-2.115,0-3.834-1.947-3.834-4.351C55.365,54.844,57.084,52.897,59.199,52.897z M53.748,71.41
			c0.583-0.408,1.298-0.225,1.605,0.463c0.091,0.188,0.023,0.418-0.183,0.473c-0.352,0.104-0.624,0.07-0.977,0
			c-0.137-0.031-0.262-0.069-0.363-0.172c-0.034-0.035-0.058-0.055-0.07-0.083c-0.012,0-0.012,0-0.012-0.011
			C53.501,71.918,53.501,71.569,53.748,71.41z M41.523,61.824c1.262,1.779,2.583,3.68,4.163,5.176
			c1.522,1.418,3.341,2.145,4.969,3.377c0.183,0.136,0.138,0.449-0.125,0.449c-4.57-0.009-7.575-5.195-9.19-8.884
			C41.285,61.816,41.443,61.713,41.523,61.824z"/>
		<path fill="#353535" d="M55.842,38.103c9.738,0.015,17.608,8.054,17.619,17.981c-0.011,9.934-7.881,17.972-17.619,17.979
			c-9.737-0.008-17.619-8.046-17.628-17.979C38.224,46.156,46.105,38.117,55.842,38.103 M55.846,35.696h-0.003h-0.003
			c-11.009,0.017-19.974,9.161-19.984,20.385c0.01,11.236,8.976,20.38,19.985,20.389c11.006-0.009,19.967-9.152,19.98-20.384
			C75.808,44.857,66.847,35.713,55.846,35.696L55.846,35.696z"/>
		<path fill="#353535" d="M59.199,61.594c2.125,0,3.845-1.947,3.845-4.351c0-2.399-1.72-4.346-3.845-4.346
			c-2.115,0-3.834,1.946-3.834,4.346C55.365,59.646,57.084,61.594,59.199,61.594z"/>
		<path fill="#353535" d="M57.925,71.394c-0.068,0.017-0.068,0.106,0,0.118c1.115,0.047,2.433,0.244,3.48-0.229
			c0.126-0.059,0.055-0.258-0.068-0.258C60.2,71.075,59.062,71.342,57.925,71.394z"/>
		<path fill="#353535" d="M53.76,72.091c0.012,0.028,0.036,0.048,0.07,0.083c0.102,0.103,0.226,0.141,0.363,0.172
			c0.353,0.07,0.625,0.104,0.977,0c0.207-0.055,0.274-0.285,0.183-0.473c-0.307-0.688-1.022-0.871-1.605-0.463
			c-0.248,0.159-0.248,0.508,0,0.67C53.748,72.091,53.748,72.091,53.76,72.091z"/>
		<path fill="#353535" d="M50.531,70.826c0.263,0,0.308-0.313,0.125-0.449c-1.628-1.232-3.447-1.959-4.969-3.377
			c-1.581-1.496-2.901-3.396-4.163-5.176c-0.08-0.111-0.238-0.008-0.183,0.118C42.956,65.631,45.96,70.817,50.531,70.826z"/>
		<path fill="#353535" d="M110.744,69.317c-1.666-0.245-3.212,0.598-4.403,1.382c-0.02,0.006-0.01,0.029,0.017,0.021
			c1.085-0.408,2.196-0.574,3.384-0.637c1.499-0.067,2.563,0.699,3.616,1.327c0.07,0.045,0.223,0.002,0.208-0.083
			C113.315,70.181,112.28,69.551,110.744,69.317z"/>
		<path fill="#353535" d="M110.581,72.683c-1.39-0.573-3.146-0.396-4.559,0.155c-0.023,0.015-0.021,0.049,0.013,0.041
			c0.956-0.139,2.013,0.023,2.928,0.273c-0.021,0.041-0.037,0.064-0.058,0.102c-1.442,2.494-8.412,12.838-27.678,16.247
			c-2.553,0.455-4.984,0.756-7.303,0.945c-11.067,0.91-19.525-0.863-25.241-2.859c-2.846-1.001-5.011-2.054-6.46-2.856
			c-0.72-0.401-1.259-0.739-1.618-0.973c-0.089-0.059-0.168-0.112-0.229-0.155c0.439-0.28,0.953-0.479,1.523-0.489
			c0.06,0.002,0.061-0.061,0.01-0.068c-1.248-0.206-2.355-0.083-3.299,0.623c-0.958,0.724-1.059,1.725-0.525,2.571
			c0.029,0.044,0.128,0.044,0.146-0.012c0.079-0.249,0.211-0.478,0.357-0.711c0.763,0.715,2.172,1.146,3.196,1.534
			c2.563,0.966,5.28,1.791,7.924,2.635c2.787,0.897,6.121,1.381,9.395,1.633c4.312,0.586,9.294,0.795,14.919,0.332
			c2.384-0.196,4.891-0.511,7.511-0.973c2.959-0.524,5.635-1.209,8.069-1.999c3.012-0.853,7.929-3.371,7.929-3.371
			c3.621-1.953,6.344-4.081,8.353-6.017c1.82-1.41,3.483-2.91,4.84-4.554c-0.044,0.192-0.093,0.383-0.069,0.568
			c0.007,0.085,0.114,0.112,0.214,0.071C112.225,74.782,111.71,73.141,110.581,72.683z"/>
		<path fill="#353535" d="M42.254,80.178c0.108,0.01,0.226-0.09,0.138-0.157c-1.271-1.046-3.099-0.831-4.759-0.183
			c-2.231,0.86-2.947,2.289-3.992,3.812c-0.021,0.037,0.056,0.062,0.077,0.029c0.583-1.083,2.275-2.152,3.52-2.823
			C38.867,79.965,40.399,79.99,42.254,80.178z"/>
	</g>
</g>
</svg>
